<svg width="24" height="24" viewBox="0 0 24 24" version="1.1" xmlns="http://www.w3.org/2000/svg" xmlns:xlink="http://www.w3.org/1999/xlink">
<title>Fill 1</title>
<desc>Created using Figma</desc>
<g id="Canvas" transform="translate(-3045 -348)">
<g id="Fill 1">
<use xlink:href="#path0_fill" transform="translate(3045 348)" fill="#3C5A99"/>
</g>
</g>
<defs>
<path id="path0_fill" fill-rule="evenodd" d="M 22.6754 0L 1.32458 0C 0.592867 0 0 0.592957 0 1.32458L 0 22.6755C 0 23.407 0.592867 24.0002 1.32458 24.0002L 12.8192 24.0002L 12.8192 14.706L 9.69152 14.706L 9.69152 11.0839L 12.8192 11.0839L 12.8192 8.41272C 12.8192 5.31287 14.7124 3.62491 17.4777 3.62491C 18.8023 3.62491 19.9408 3.72347 20.2727 3.76753L 20.2727 7.00712L 18.3547 7.00802C 16.8508 7.00802 16.5595 7.72265 16.5595 8.77134L 16.5595 11.0839L 20.1463 11.0839L 19.6793 14.706L 16.5595 14.706L 16.5595 24.0002L 22.6754 24.0002C 23.4069 24.0002 24 23.407 24 22.6755L 24 1.32458C 24 0.592957 23.4069 0 22.6754 0Z"/>
</defs>
</svg>
