<svg width="24" height="20" viewBox="0 0 24 20" version="1.1" xmlns="http://www.w3.org/2000/svg" xmlns:xlink="http://www.w3.org/1999/xlink">
<title>Fill 1</title>
<desc>Created using Figma</desc>
<g id="Canvas" transform="translate(-3045 -428)">
<g id="Fill 1">
<use xlink:href="#path0_fill" transform="translate(3045 428)" fill="#1DA1F2"/>
</g>
</g>
<defs>
<path id="path0_fill" fill-rule="evenodd" d="M 7.5479 19.5051C 16.6048 19.5051 21.5577 12.0016 21.5577 5.49523C 21.5577 5.28202 21.5533 5.06976 21.5436 4.85866C 22.505 4.16371 23.3407 3.29654 24 2.30918C 23.1178 2.70106 22.1682 2.96525 21.1723 3.08438C 22.1889 2.47488 22.9694 1.51027 23.3375 0.360576C 22.3859 0.924576 21.3325 1.33488 20.211 1.55568C 19.3124 0.598656 18.0327 0 16.6167 0C 13.8972 0 11.692 2.20522 11.692 4.92365C 11.692 5.31014 11.7353 5.68579 11.8198 6.04637C 7.72762 5.84064 4.09872 3.88109 1.6705 0.901824C 1.24723 1.62931 1.00358 2.47488 1.00358 3.3767C 1.00358 5.08502 1.87296 6.59309 3.19478 7.47533C 2.38714 7.45046 1.62826 7.22851 0.964608 6.8593C 0.963552 6.87994 0.963552 6.90048 0.963552 6.92208C 0.963552 9.3071 2.66102 11.298 4.91395 11.7494C 4.50038 11.862 4.06522 11.9226 3.61594 11.9226C 3.29866 11.9226 2.99011 11.8912 2.6903 11.8338C 3.31709 13.7901 5.13475 15.2137 7.29024 15.2538C 5.60458 16.5746 3.48163 17.3616 1.17466 17.3616C 0.777312 17.3616 0.38544 17.3388 0 17.2933C 2.1793 18.69 4.76669 19.5051 7.5479 19.5051Z"/>
</defs>
</svg>
