<svg width="24" height="24" viewBox="0 0 24 24" version="1.1" xmlns="http://www.w3.org/2000/svg" xmlns:xlink="http://www.w3.org/1999/xlink">
<title>Fill 1</title>
<desc>Created using Figma</desc>
<g id="Canvas" transform="translate(-3045 -388)">
<g id="Fill 1">
<use xlink:href="#path0_fill" transform="translate(3045 388)" fill="#4D75A3"/>
</g>
</g>
<defs>
<path id="path0_fill" fill-rule="evenodd" d="M 19.7005 16.8952L 17.6819 16.8952C 17.0227 16.8952 16.9403 16.4146 15.7318 15.261C 14.7124 14.2555 14.2761 14.1761 14.029 14.1761C 13.8093 14.1761 13.6582 14.3409 13.6582 14.7254L 13.6582 16.2635C 13.6582 16.7167 13.3973 16.8952 12.3261 16.8952C 10.5684 16.8952 8.61841 15.8103 7.13532 13.8054C 4.92437 10.8254 4.36133 8.60074 4.36133 8.1201C 4.36133 7.85917 4.55362 7.68076 4.81455 7.68076L 6.61345 7.68076C 7.08033 7.68076 7.25885 7.81811 7.42367 8.31239C 8.24759 10.7293 9.71703 12.8578 10.335 12.8578C 10.5684 12.8578 10.5958 12.6656 10.5958 12.1712L 10.5958 9.71312C 10.5958 8.52174 9.92297 8.4225 9.92297 7.98281C 9.92297 7.80845 10.0603 7.68076 10.28 7.68076L 13.1639 7.68076C 13.5484 7.68076 13.6032 7.81811 13.6032 8.28492L 13.6032 11.6219C 13.6032 12.0027 13.6813 12.1438 13.8505 12.1438C 14.0602 12.1438 14.2533 12.0167 14.6332 11.5945C 15.8166 10.2886 16.7892 8.21627 16.7892 8.21627C 16.9128 7.95534 17.0639 7.77676 17.4759 7.77676L 19.2748 7.77676C 19.6319 7.77676 19.7829 7.9691 19.7143 8.31239C 19.5082 9.27366 17.4346 12.1987 17.4346 12.1987C 17.2424 12.5008 17.16 12.6656 17.4346 12.954C 17.6269 13.2012 18.2311 13.7367 18.6019 14.2311C 19.5082 15.1924 20.0987 16.0025 20.0987 16.4557C 20.0987 16.7991 19.9065 16.8952 19.7005 16.8952ZM 20.2997 0L 3.69785 0C 1.6556 0 0 1.6556 0 3.69779L 0 20.2997C 0 22.342 1.6556 23.9976 3.69785 23.9976L 20.2997 23.9976C 22.342 23.9976 23.9976 22.342 23.9976 20.2997L 23.9976 3.69779C 23.9976 1.6556 22.342 0 20.2997 0Z"/>
</defs>
</svg>
